<?xml version="1.0" encoding="UTF-8" standalone="no"?>
<svg width="14px" height="14px" viewBox="0 0 14 14" version="1.1" xmlns="http://www.w3.org/2000/svg" xmlns:xlink="http://www.w3.org/1999/xlink">
    <!-- Generator: Sketch 3.7.2 (28276) - http://www.bohemiancoding.com/sketch -->
    <title>Group 42</title>
    <desc>Created with Sketch.</desc>
    <defs></defs>
    <g id="UI-Desktop" stroke="none" stroke-width="1" fill="none" fill-rule="evenodd">
        <g id="Company-Reviews-Logged-Out" transform="translate(-628.000000, -802.000000)" fill="#276EA4">
            <g id="Group-46" transform="translate(30.000000, 794.000000)">
                <g id="Group-44" transform="translate(598.000000, 5.000000)">
                    <g id="Group-42" transform="translate(0.000000, 3.000000)">
                        <path d="M7,14 C10.8659932,14 14,10.8659932 14,7 C14,3.13400675 10.8659932,0 7,0 C3.13400675,0 0,3.13400675 0,7 C0,10.8659932 3.13400675,14 7,14 L7,14 Z M7,12 C4.23857625,12 2,9.76142375 2,7 C2,4.23857625 4.23857625,2 7,2 C9.76142375,2 12,4.23857625 12,7 C12,9.76142375 9.76142375,12 7,12 L7,12 Z" id="Oval-175"></path>
                        <rect id="Rectangle-1655" x="6" y="3" width="2" height="4.5"></rect>
                        <rect id="Rectangle-1655-Copy" transform="translate(7.875000, 7.000000) rotate(-270.000000) translate(-7.875000, -7.000000) " x="6.875" y="5.125" width="2" height="3.75"></rect>
                    </g>
                </g>
            </g>
        </g>
    </g>
</svg>