<?xml version="1.0" encoding="UTF-8" standalone="no"?>
<svg width="18px" height="12px" viewBox="0 0 18 12" version="1.1" xmlns="http://www.w3.org/2000/svg" xmlns:xlink="http://www.w3.org/1999/xlink">
    <!-- Generator: Sketch 3.6.1 (26313) - http://www.bohemiancoding.com/sketch -->
    <title>Group 11</title>
    <desc>Created with Sketch.</desc>
    <defs></defs>
    <g id="UI-Desktop" stroke="none" stroke-width="1" fill="none" fill-rule="evenodd">
        <g id="_style_guide" transform="translate(-855.000000, -944.000000)" fill="#276EA4">
            <g id="Group-11" transform="translate(855.000000, 944.000000)">
                <path d="M5.68907465,4.92610837 L5.68907465,6.89655172 L8.91559271,6.89655172 C8.78555672,7.74220033 7.94032277,9.37602627 5.68907465,9.37602627 C3.74666202,9.37602627 2.16184837,7.75041051 2.16184837,5.74712644 C2.16184837,3.74384236 3.74666202,2.1182266 5.68907465,2.1182266 C6.79438059,2.1182266 7.53396029,2.59441708 7.95657727,3.00492611 L9.50075467,1.50246305 C8.50923023,0.566502463 7.22512481,0 5.68907465,0 C2.5438291,0 0,2.56978654 0,5.74712644 C0,8.92446634 2.5438291,11.4942529 5.68907465,11.4942529 C8.97248346,11.4942529 11.1505863,9.16256158 11.1505863,5.87848933 C11.1505863,5.50082102 11.1099501,5.2134647 11.0611866,4.92610837 L5.68907465,4.92610837 L5.68907465,4.92610837 Z" id="Shape"></path>
                <path d="M17.8799489,4.92610837 L16.254499,4.92610837 L16.254499,3.28407225 L14.6290491,3.28407225 L14.6290491,4.92610837 L13.0035992,4.92610837 L13.0035992,6.5681445 L14.6290491,6.5681445 L14.6290491,8.21018062 L16.254499,8.21018062 L16.254499,6.5681445 L17.8799489,6.5681445" id="Shape-Copy"></path>
            </g>
        </g>
    </g>
</svg>