<?xml version="1.0" encoding="UTF-8" standalone="no"?>
<svg width="14px" height="12px" viewBox="0 0 14 12" version="1.1" xmlns="http://www.w3.org/2000/svg" xmlns:xlink="http://www.w3.org/1999/xlink">
    <!-- Generator: Sketch 3.6.1 (26313) - http://www.bohemiancoding.com/sketch -->
    <title>Group Copy 15</title>
    <desc>Created with Sketch.</desc>
    <defs></defs>
    <g id="UI-Desktop" stroke="none" stroke-width="1" fill="none" fill-rule="evenodd">
        <g id="_style_guide" transform="translate(-713.000000, -834.000000)" fill="#276EA4">
            <g id="Group-Copy-15" transform="translate(713.000000, 834.000000)">
                <g id="Group">
                    <path d="M2.98910526,4.70656579 L0.597763158,4.70656579 C0.267763158,4.70656579 0,4.97432895 0,5.30432895 L0,11.2825395 C0,11.6125395 0.267763158,11.8803026 0.597763158,11.8803026 L2.98910526,11.8803026 C3.31910526,11.8803026 3.58686842,11.6125395 3.58686842,11.2825395 L3.58686842,5.30432895 C3.58701316,4.97432895 3.31910526,4.70656579 2.98910526,4.70656579 L2.98910526,4.70656579 Z" id="Shape"></path>
                    <path d="M13.1520921,4.10865789 L8.56522368,4.10865789 L8.56522368,0.717315789 C8.56522368,0.387315789 8.29746053,0.119552632 7.96746053,0.119552632 L7.17388158,0.119552632 C6.93477632,0.119552632 6.71839474,0.261828947 6.62446053,0.481828947 L4.78253947,5.30432895 L4.78253947,10.9704868 L6.95142105,11.8378947 C7.02263158,11.8659737 7.09789474,11.8803026 7.17388158,11.8803026 L11.9564211,11.8803026 C12.2451711,11.8803026 12.4926711,11.6734737 12.5446316,11.3895 L13.7403026,4.81338158 C13.772,4.63897368 13.7248158,4.45964474 13.6111974,4.32330263 C13.4975789,4.18753947 13.3289605,4.10865789 13.1520921,4.10865789 Z" id="Shape"></path>
                </g>
            </g>
        </g>
    </g>
</svg>