<?xml version="1.0" encoding="UTF-8" standalone="no"?>
<svg width="14px" height="14px" viewBox="0 0 14 14" version="1.1" xmlns="http://www.w3.org/2000/svg" xmlns:xlink="http://www.w3.org/1999/xlink">
    <!-- Generator: Sketch 3.6.1 (26313) - http://www.bohemiancoding.com/sketch -->
    <title>Fill 1</title>
    <desc>Created with Sketch.</desc>
    <defs></defs>
    <g id="UI-Desktop" stroke="none" stroke-width="1" fill="none" fill-rule="evenodd">
        <g id="_style_guide" transform="translate(-855.000000, -908.000000)" fill="#276EA4">
            <path d="M866.746215,919.929847 L864.703029,919.929847 L864.703029,916.680778 C864.703029,915.905625 864.689053,914.909097 863.640656,914.909097 C862.576656,914.909097 862.41373,915.753181 862.41373,916.624681 L862.41373,919.929847 L860.370639,919.929847 L860.370639,913.248639 L862.331979,913.248639 L862.331979,914.161556 L862.359166,914.161556 C862.631986,913.636264 863.298913,913.082389 864.293607,913.082389 C866.363979,913.082389 866.746215,914.466153 866.746215,916.265056 L866.746215,919.929847 Z M858.066503,912.335333 C857.411159,912.335333 856.880738,911.795653 856.880738,911.131042 C856.880738,910.466917 857.411159,909.927431 858.066503,909.927431 C858.720123,909.927431 859.251309,910.466917 859.251309,911.131042 C859.251309,911.795653 858.720123,912.335333 858.066503,912.335333 L858.066503,912.335333 Z M857.043761,919.929847 L859.088383,919.929847 L859.088383,913.248639 L857.043761,913.248639 L857.043761,919.929847 Z M867.764458,908 L856.017477,908 C855.456137,908 855,908.451889 855,909.009069 L855,920.989764 C855,921.547431 855.456137,922 856.017477,922 L867.764458,922 C868.326756,922 868.784807,921.547431 868.784807,920.989764 L868.784807,909.009069 C868.784807,908.451889 868.326756,908 867.764458,908 L867.764458,908 Z" id="Fill-1"></path>
        </g>
    </g>
</svg>