<?xml version="1.0" encoding="UTF-8" standalone="no"?>
<svg width="11px" height="11px" viewBox="0 0 11 11" version="1.1" xmlns="http://www.w3.org/2000/svg" xmlns:xlink="http://www.w3.org/1999/xlink">
    <!-- Generator: Sketch 3.6.1 (26313) - http://www.bohemiancoding.com/sketch -->
    <title>noun_97198_cc copy 2</title>
    <desc>Created with Sketch.</desc>
    <defs></defs>
    <g id="UI-Desktop" stroke="none" stroke-width="1" fill="none" fill-rule="evenodd">
        <g id="_style_guide" transform="translate(-568.000000, -797.000000)" fill="#276EA4">
            <g id="noun_97198_cc-copy-2" transform="translate(568.000000, 797.000000)">
                <path d="M5.36666667,5.82352941 C3.86666667,5.82352941 2.66666667,4.52941176 2.66666667,2.91176471 C2.66666667,1.29411765 3.86666667,0 5.36666667,0 C6.86666667,0 8.06666667,1.29411765 8.06666667,2.91176471 C8.06666667,4.52941176 6.86666667,5.82352941 5.36666667,5.82352941 L5.36666667,5.82352941 Z" id="Shape"></path>
                <path d="M8.94613178,11 L1.94613178,11 C0.846131779,11 0.212798446,10.2882353 0.0461317789,9.57647059 C-0.120534888,8.86470588 0.146131779,7.92647059 1.14613178,7.47352941 C2.27946511,6.95588235 3.57946511,6.47058824 5.27946511,6.47058824 C7.24613178,6.47058824 8.94613178,7.08529412 9.74613178,7.47352941 C10.7461318,7.92647059 11.0127984,8.83235294 10.8461318,9.57647059 C10.6794651,10.2882353 10.0461318,11 8.94613178,11 L8.94613178,11 Z" id="Shape"></path>
            </g>
        </g>
    </g>
</svg>