<?xml version="1.0" encoding="UTF-8" standalone="no"?>
<svg width="21px" height="25px" viewBox="0 0 21 25" version="1.1" xmlns="http://www.w3.org/2000/svg" xmlns:xlink="http://www.w3.org/1999/xlink">
    <!-- Generator: Sketch 3.7.2 (28276) - http://www.bohemiancoding.com/sketch -->
    <title>Group 6 Copy</title>
    <desc>Created with Sketch.</desc>
    <defs></defs>
    <g id="mobile" stroke="none" stroke-width="1" fill="none" fill-rule="evenodd">
        <g id="cliente_section_mobile" transform="translate(-281.000000, -14.000000)" fill="#000000">
            <g id="Group-6-Copy" transform="translate(293.207693, 27.556916) rotate(-34.000000) translate(-293.207693, -27.556916) translate(284.707693, 14.056916)">
                <path d="M8.478703,16.957406 C13.1613614,16.957406 16.957406,13.1613614 16.957406,8.478703 C16.957406,3.79604464 13.1613614,1.25055521e-12 8.478703,1.25055521e-12 C3.79604464,1.25055521e-12 -1.05160325e-12,3.79604464 -1.05160325e-12,8.478703 C-1.05160325e-12,13.1613614 3.79604464,16.957406 8.478703,16.957406 L8.478703,16.957406 Z M8.478703,14.957406 C4.90061413,14.957406 2,12.0567919 2,8.478703 C2,4.90061413 4.90061413,2 8.478703,2 C12.0567919,2 14.957406,4.90061413 14.957406,8.478703 C14.957406,12.0567919 12.0567919,14.957406 8.478703,14.957406 L8.478703,14.957406 Z" id="Oval-3"></path>
                <polygon id="Line" points="7.91862671 15.957406 7.91862671 25.3303734 7.91862671 26.3303734 9.91862671 26.3303734 9.91862671 25.3303734 9.91862671 15.957406 9.91862671 14.957406 7.91862671 14.957406"></polygon>
            </g>
        </g>
    </g>
</svg>