<?xml version="1.0" encoding="UTF-8" standalone="no"?>
<svg width="15px" height="12px" viewBox="0 0 15 12" version="1.1" xmlns="http://www.w3.org/2000/svg" xmlns:xlink="http://www.w3.org/1999/xlink">
    <!-- Generator: Sketch 3.6.1 (26313) - http://www.bohemiancoding.com/sketch -->
    <title>Page 1</title>
    <desc>Created with Sketch.</desc>
    <defs></defs>
    <g id="UI-Desktop" stroke="none" stroke-width="1" fill="none" fill-rule="evenodd">
        <g id="_style_guide" transform="translate(-855.000000, -872.000000)" fill="#276EA4">
            <path d="M868.262368,875.381577 C868.262368,879.384527 865.215525,884 859.643945,884 C857.933727,884 856.341242,883.498669 855,882.639136 C855.235852,882.665299 855.478246,882.681843 855.722562,882.681843 C857.141909,882.681843 858.447754,882.197057 859.485043,881.384078 C858.158036,881.360608 857.040335,880.48376 856.654429,879.280644 C856.839495,879.316041 857.029562,879.335663 857.223091,879.335663 C857.500112,879.335663 857.767899,879.297958 858.02145,879.229087 C856.635577,878.949373 855.590978,877.726634 855.590978,876.257655 L855.590978,876.219949 C855.999583,876.446183 856.467056,876.582385 856.963385,876.597775 C856.15079,876.054506 855.616756,875.126487 855.616756,874.076117 C855.616756,873.521306 855.766039,873.001507 856.026901,872.554041 C857.519735,874.386611 859.752445,875.592036 862.270256,875.718234 C862.217929,875.497387 862.192536,875.264997 862.192536,875.027606 C862.192536,873.356247 863.548398,872 865.220526,872 C866.092372,872 866.879958,872.367822 867.43246,872.955337 C868.121549,872.820289 868.770624,872.568277 869.355831,872.220847 C869.129212,872.927635 868.648658,873.521306 868.024207,873.896053 C868.636346,873.82372 869.219244,873.66097 869.763282,873.418962 C869.358139,874.029562 868.845266,874.562827 868.252749,874.9899 C868.259675,875.119561 868.262368,875.250377 868.262368,875.381577 Z" id="Page-1"></path>
        </g>
    </g>
</svg>