<?xml version="1.0" encoding="UTF-8" standalone="no"?>
<svg width="9px" height="13px" viewBox="0 0 9 13" version="1.1" xmlns="http://www.w3.org/2000/svg" xmlns:xlink="http://www.w3.org/1999/xlink">
    <!-- Generator: Sketch 3.6.1 (26313) - http://www.bohemiancoding.com/sketch -->
    <title>Group 27 Copy 4</title>
    <desc>Created with Sketch.</desc>
    <defs></defs>
    <g id="UI-Desktop" stroke="none" stroke-width="1" fill="none" fill-rule="evenodd">
        <g id="_style_guide" transform="translate(-716.000000, -870.000000)">
            <g id="Group-27-Copy-4" transform="translate(716.000000, 870.000000)">
                <path d="M7.36029412,5.50588235 L1.05147059,5.50588235 C0.473161765,5.50588235 -4.54747351e-13,5.98764706 -4.54747351e-13,6.57647059 L-4.54747351e-13,11.9294118 C-4.54747351e-13,12.5182353 0.473161765,13 1.05147059,13 L7.36029412,13 C7.93860294,13 8.41176471,12.5182353 8.41176471,11.9294118 L8.41176471,6.57647059 C8.41176471,5.98764706 7.93860294,5.50588235 7.36029412,5.50588235 L7.36029412,5.50588235 L7.36029412,5.50588235 Z" id="Shape" fill="#276EA4" transform="translate(4.205882, 9.252941) scale(-1, 1) translate(-4.205882, -9.252941) "></path>
                <path d="M6.94053438,6.12792676 L6.94053438,4.72210383 C6.94053438,2.75395172 5.58111599,1.20754649 3.85094712,1.20754649 C2.36794523,1.20754649 1.13211032,2.40249599 0.823151597,4.01919236" id="Shape" stroke="#276EA4" stroke-width="2" transform="translate(3.881843, 3.667737) scale(-1, 1) rotate(-346.000000) translate(-3.881843, -3.667737) "></path>
                <ellipse id="Oval" fill="#FFFFFF" transform="translate(4.205882, 9.252941) scale(-1, 1) translate(-4.205882, -9.252941) " cx="4.20588235" cy="9.25294118" rx="1.05147059" ry="1.07058824"></ellipse>
            </g>
        </g>
    </g>
</svg>