<?xml version="1.0" encoding="utf-8"?>
<!DOCTYPE svg PUBLIC "-//W3C//DTD SVG 1.1//EN" "http://www.w3.org/Graphics/SVG/1.1/DTD/svg11.dtd">
<svg version="1.1" xmlns="http://www.w3.org/2000/svg" xmlns:xlink="http://www.w3.org/1999/xlink" width="8216" height="1024" viewBox="0 0 8216 1024"><g id="lovemondays-logotype-plain">
</g>
<path fill="rgb(255, 255, 255)" d="M0 925.672v-796.555h170.832v647.573h336.698v148.982h-507.531zM444.958 528.388c0-240.357 175.798-412.182 417.148-412.182 240.357 0 416.155 171.825 416.155 412.182s-175.798 412.182-416.155 412.182c-242.343 0-417.148-171.825-417.148-412.182zM1102.464 528.388c0-148.982-94.355-261.214-241.35-261.214-147.988 0-242.343 112.233-242.343 261.214 0 147.988 94.355 261.214 242.343 261.214 146.995 0 241.35-113.226 241.35-261.214zM2285.377 925.672v-796.555h564.144v148.982h-394.305v166.859h386.359v148.982h-386.359v181.758h394.305v148.982h-564.144zM3795.057 925.672v-574.076l-224.466 575.069h-74.491l-224.466-575.069v575.069h-169.839v-797.548h237.377l193.676 498.592 193.676-498.592h239.364v796.555h-170.832zM4001.645 528.388c0-240.357 175.798-412.182 417.148-412.182 240.357 0 416.155 171.825 416.155 412.182s-175.798 412.182-416.155 412.182c-241.35 0-417.148-171.825-417.148-412.182zM4660.144 528.388c0-148.982-94.355-261.214-241.35-261.214-147.988 0-242.343 112.233-242.343 261.214 0 147.988 94.355 261.214 242.343 261.214 146.995 0 241.35-113.226 241.35-261.214zM5419.95 925.672l-380.4-519.449v519.449h-169.839v-796.555h174.805l369.474 500.578v-500.578h169.839v796.555h-163.88zM5633.49 925.672v-796.555h313.855c249.296 0 423.108 158.914 423.108 398.277 0 241.35-172.819 399.271-422.114 399.271h-314.848zM6197.633 527.395c0-140.043-86.409-248.303-248.303-248.303h-146.002v498.592h145.009c156.927-0.993 249.296-114.219 249.296-250.289zM6929.629 925.672l-50.654-135.077h-341.664l-50.654 135.077h-192.683l308.888-796.555h212.547l306.902 796.555h-192.683zM6709.137 298.956l-124.151 342.658h248.303l-124.151-342.658zM7182.898 925.672v-325.773l-305.909-470.782h193.676l197.649 318.821 196.656-318.821h192.683l-304.916 470.782v325.773h-169.839zM7557.339 813.439l93.362-133.090c56.613 58.599 143.022 109.253 253.269 109.253 94.355 0 139.049-41.715 139.049-88.396 0-139.049-458.863-41.715-458.863-341.664 0-133.090 114.219-242.343 301.936-242.343 127.131 0 231.418 37.742 310.875 111.24l-94.355 127.131c-64.559-59.593-150.968-87.403-231.418-87.403-71.511 0-112.233 30.79-112.233 78.464 0 125.145 457.87 40.722 457.87 337.692 0 146.002-105.28 255.255-318.821 255.255-155.934 0.993-265.187-50.654-340.671-126.138z"></path>
<path fill="rgb(255, 255, 255)" d="M1651.709 923.686c-12.912-35.756-10.925-75.484 5.959-110.246l234.398-503.558c23.837-48.667 84.423-70.518 134.083-48.667 50.654 23.837 63.565 75.484 41.715 122.165l-127.131 265.187c-17.878 35.756-71.511 8.939-55.62-25.823l126.138-257.242c5.959-14.898-0.993-32.776-13.905-39.728-14.898-6.952-33.769 0-39.728 13.905l-235.391 503.558c-17.878 38.735-0.993 81.443 35.756 98.328 36.749 19.864 83.43-0.993 97.335-35.756l304.916-653.532c29.796-62.572 2.98-137.063-60.586-165.866-61.579-28.803-137.063-1.986-165.866 60.586l-236.384 500.578c-19.864 41.715-81.443 13.905-61.579-27.81l234.398-502.565c45.688-97.335 161.893-140.043 259.228-94.355 98.328 44.694 141.036 161.893 94.355 260.221l-303.922 651.546c-16.885 34.762-45.688 62.572-81.443 75.484-75.484 27.81-160.9-14.898-186.724-86.409zM1633.831 1011.088c-35.756-12.912-64.559-40.722-81.443-75.484l-303.922-651.546c-45.688-99.321-3.973-215.527 94.355-260.221 97.335-45.688 213.54-2.98 259.228 94.355l235.391 501.571c19.864 41.715-41.715 69.525-61.579 27.81l-236.384-500.578c-28.803-61.579-104.287-89.389-165.866-60.586-63.565 28.803-90.382 103.294-60.586 165.866l304.916 653.532c13.905 34.762 60.586 55.62 97.335 35.756 36.749-16.885 53.633-59.593 35.756-98.328l-235.391-503.558c-5.959-14.898-23.837-20.857-39.728-13.905-13.905 5.959-19.864 24.83-13.905 39.728l126.138 257.242c16.885 34.762-37.742 61.579-55.62 25.823l-127.131-265.187c-21.851-46.681-8.939-99.321 41.715-122.165 49.661-21.851 110.246 0 134.083 48.667l234.398 503.558c16.885 34.762 18.871 74.491 5.959 110.246-27.81 71.511-112.233 114.219-187.717 87.403z"></path>
</svg>
