<?xml version="1.0" encoding="utf-8"?>
<!-- Generator: Adobe Illustrator 16.0.0, SVG Export Plug-In . SVG Version: 6.00 Build 0)  -->
<!DOCTYPE svg PUBLIC "-//W3C//DTD SVG 1.1//EN" "http://www.w3.org/Graphics/SVG/1.1/DTD/svg11.dtd">
<svg version="1.1" id="Layer_1" xmlns="http://www.w3.org/2000/svg" xmlns:xlink="http://www.w3.org/1999/xlink" x="0px" y="0px"
	 width="50px" height="50px" viewBox="0 0 50 50" enable-background="new 0 0 50 50" xml:space="preserve">
<path id="Facebook_2_" fill="#FFFFFF" d="M33.742,32.135c0,0.488-0.4,0.889-0.889,0.889H28.68v-6.307h2.131l0.311-2.442H28.68V22.72
	c0-0.711,0.177-1.199,1.198-1.199h1.288V19.3c-0.223-0.044-0.977-0.089-1.91-0.089c-1.865,0-3.152,1.155-3.152,3.242v1.821h-2.132
	v2.442h2.132v6.307h-7.817c-0.489,0-0.888-0.4-0.888-0.889V17.612c0-0.488,0.399-0.889,0.888-0.889h14.522
	c0.489,0,0.889,0.4,0.889,0.889v14.522H33.742z"/>
</svg>
