<?xml version="1.0" encoding="utf-8"?>
<!-- Generator: Adobe Illustrator 16.0.0, SVG Export Plug-In . SVG Version: 6.00 Build 0)  -->
<!DOCTYPE svg PUBLIC "-//W3C//DTD SVG 1.1//EN" "http://www.w3.org/Graphics/SVG/1.1/DTD/svg11.dtd">
<svg version="1.1" id="Layer_1" xmlns="http://www.w3.org/2000/svg" xmlns:xlink="http://www.w3.org/1999/xlink" x="0px" y="0px"
	 width="50px" height="50px" viewBox="0 0 50 50" enable-background="new 0 0 50 50" xml:space="preserve">
<g id="Google_x2B__2_">
	<path fill="#FFFFFF" d="M21.714,23.8v2.266c0,0,2.176,0,3.064,0c-0.489,1.465-1.244,2.264-3.064,2.264
		c-1.866,0-3.331-1.51-3.331-3.375c0-1.865,1.465-3.375,3.331-3.375c0.977,0,1.643,0.354,2.22,0.844
		c0.489-0.489,0.444-0.533,1.599-1.644c-1.021-0.933-2.354-1.466-3.819-1.466c-3.153,0-5.685,2.531-5.685,5.685
		c0,3.153,2.532,5.686,5.685,5.686c4.708,0,5.862-4.086,5.462-6.84h-5.462V23.8z"/>
	<polygon fill="#FFFFFF" points="31.973,23.889 31.973,21.935 30.596,21.935 30.596,23.889 28.553,23.889 28.553,25.311 
		30.596,25.311 30.596,27.354 31.973,27.354 31.973,25.311 33.971,25.311 33.971,23.889 	"/>
</g>
</svg>
