<?xml version="1.0" encoding="utf-8"?>
<!DOCTYPE svg PUBLIC "-//W3C//DTD SVG 1.1//EN" "http://www.w3.org/Graphics/SVG/1.1/DTD/svg11.dtd">
<svg version="1.1" xmlns="http://www.w3.org/2000/svg" xmlns:xlink="http://www.w3.org/1999/xlink" width="3595" height="448" viewBox="0 0 3595 448"><g id="lovemondays-logotype">
</g>
<path fill="rgb(255, 255, 255)" d="M0 404.981v-348.493h74.739v283.313h147.305v65.18h-222.045zM194.669 231.17c0-105.156 76.912-180.33 182.502-180.33 105.156 0 182.068 75.173 182.068 180.33s-76.912 180.33-182.068 180.33c-106.025 0-182.502-75.173-182.502-180.33zM482.328 231.17c0-65.18-41.28-114.281-105.591-114.281-64.745 0-106.025 49.102-106.025 114.281 0 64.745 41.28 114.281 106.025 114.281 64.31 0 105.591-49.536 105.591-114.281zM999.852 404.981v-348.493h246.813v65.18h-172.508v73.001h169.032v65.18h-169.032v79.519h172.508v65.18h-246.813zM1660.337 404.981v-251.158l-98.204 251.593h-32.59l-98.204-251.593v251.593h-74.305v-348.927h103.852l84.733 218.134 84.733-218.134h104.722v348.493h-74.739zM1750.72 231.17c0-105.156 76.912-180.33 182.502-180.33 105.156 0 182.068 75.173 182.068 180.33s-76.912 180.33-182.068 180.33c-105.591 0-182.502-75.173-182.502-180.33zM2038.813 231.17c0-65.18-41.28-114.281-105.591-114.281-64.745 0-106.025 49.102-106.025 114.281 0 64.745 41.28 114.281 106.025 114.281 64.31 0 105.591-49.536 105.591-114.281zM2371.228 404.981l-166.425-227.259v227.259h-74.305v-348.493h76.477l161.645 219.003v-219.003h74.305v348.493h-71.698zM2464.652 404.981v-348.493h137.312c109.067 0 185.11 69.525 185.11 174.246 0 105.591-75.608 174.681-184.675 174.681h-137.746zM2711.464 230.735c0-61.269-37.804-108.633-108.633-108.633h-63.876v218.134h63.441c68.656-0.434 109.067-49.971 109.067-109.501zM3031.713 404.981l-22.161-59.096h-149.478l-22.161 59.096h-84.299l135.139-348.493h92.989l134.27 348.493h-84.299zM2935.247 130.793l-54.316 149.913h108.633l-54.316-149.913zM3142.518 404.981v-142.526l-133.835-205.967h84.733l86.471 139.484 86.037-139.484h84.299l-133.401 205.967v142.526h-74.305zM3306.336 355.88l40.846-58.227c24.768 25.637 62.572 47.798 110.805 47.798 41.28 0 60.834-18.25 60.834-38.673 0-60.834-200.753-18.25-200.753-149.478 0-58.227 49.971-106.025 132.097-106.025 55.62 0 101.245 16.512 136.008 48.667l-41.28 55.62c-28.245-26.072-66.048-38.239-101.245-38.239-31.286 0-49.102 13.471-49.102 34.328 0 54.751 200.318 17.816 200.318 147.74 0 63.876-46.060 111.674-139.484 111.674-68.221 0.434-116.019-22.161-149.044-55.185z"></path>
<path fill="rgb(207, 74, 83)" d="M722.623 404.113c-5.649-15.643-4.78-33.024 2.607-48.233l102.549-220.307c10.429-21.292 36.935-30.852 58.661-21.292 22.161 10.429 27.81 33.024 18.25 53.447l-55.62 116.019c-7.822 15.643-31.286 3.911-24.334-11.298l55.185-112.543c2.607-6.518-0.434-14.34-6.083-17.381-6.518-3.042-14.774 0-17.381 6.083l-102.984 220.307c-7.822 16.947-0.434 35.631 15.643 43.019 16.078 8.69 36.501-0.434 42.584-15.643l133.401-285.92c13.036-27.375 1.304-59.965-26.506-72.566-26.941-12.601-59.965-0.869-72.566 26.506l-103.418 219.003c-8.69 18.25-35.631 6.083-26.941-12.167l102.549-219.872c19.989-42.584 70.828-61.269 113.412-41.28 43.018 19.554 61.703 70.828 41.28 113.847l-132.966 285.051c-7.387 15.208-19.989 27.375-35.631 33.024-33.024 12.167-70.394-6.518-81.692-37.804zM714.801 442.351c-15.643-5.649-28.245-17.816-35.631-33.024l-132.966-285.051c-19.989-43.453-1.738-94.293 41.28-113.847 42.584-19.989 93.424-1.304 113.412 41.28l102.984 219.437c8.691 18.25-18.25 30.417-26.941 12.167l-103.418-219.003c-12.601-26.941-45.626-39.108-72.566-26.506-27.81 12.601-39.542 45.191-26.506 72.566l133.401 285.92c6.083 15.208 26.506 24.334 42.584 15.643 16.078-7.387 23.464-26.072 15.643-43.018l-102.984-220.307c-2.607-6.518-10.429-9.125-17.381-6.083-6.083 2.607-8.69 10.863-6.083 17.381l55.185 112.543c7.387 15.208-16.512 26.941-24.334 11.298l-55.62-116.019c-9.56-20.423-3.911-43.453 18.25-53.447 21.727-9.56 48.233 0 58.661 21.292l102.549 220.307c7.387 15.208 8.256 32.59 2.607 48.233-12.167 31.286-49.102 49.971-82.126 38.239z"></path>
</svg>
